<?xml version="1.0" encoding="UTF-8"?>
<svg id="Layer_2" data-name="Layer 2" xmlns="http://www.w3.org/2000/svg" viewBox="0 0 840 840">
  <defs>
    <style>
      .cls-1 {
        fill: none;
        stroke: #221f1f;
        stroke-linecap: round;
        stroke-linejoin: round;
        stroke-width: 40px;
      }
    </style>
  </defs>
  <g id="Layer_1-2" data-name="Layer 1">
    <g>
      <line class="cls-1" x1="220" y1="820" x2="220" y2="820"/>
      <line class="cls-1" x1="20" y1="620" x2="20" y2="620"/>
      <line class="cls-1" x1="420" y1="820" x2="420" y2="820"/>
      <line class="cls-1" x1="620" y1="820" x2="620" y2="820"/>
      <path class="cls-1" d="M115.49,820c0-55.27,46.74-100,104.51-100"/>
      <path class="cls-1" d="M320,820c0-55.27,43.62-100,97.52-100"/>
      <path class="cls-1" d="M521.97,820c0-55.27-45.61-100-101.97-100"/>
      <line class="cls-1" x1="424.46" y1="20" x2="424.46" y2="20"/>
      <line class="cls-1" x1="220" y1="20" x2="220" y2="20"/>
      <line class="cls-1" x1="620" y1="20" x2="620" y2="20"/>
      <line class="cls-1" x1="420" y1="220" x2="420" y2="220"/>
      <line class="cls-1" x1="420" y1="420" x2="420" y2="420"/>
      <line class="cls-1" x1="620" y1="420" x2="620" y2="420"/>
      <line class="cls-1" x1="424.46" y1="620" x2="424.46" y2="620"/>
      <line class="cls-1" x1="220" y1="420" x2="220" y2="420"/>
      <path class="cls-1" d="M521.97,20c0,55.27-43.62,100-97.52,100"/>
      <path class="cls-1" d="M322.48,20c0,55.27,45.61,100,101.97,100"/>
      <path class="cls-1" d="M718.46,820c0-55.27-44.04-100-98.46-100"/>
      <path class="cls-1" d="M120,620c0,55.27-44.73,100-100,100"/>
      <path class="cls-1" d="M120,620c0-55.27-44.73-100-100-100"/>
      <line class="cls-1" x1="20" y1="220" x2="20" y2="220"/>
      <line class="cls-1" x1="20" y1="420" x2="20" y2="420"/>
      <path class="cls-1" d="M120,220c0,55.27-44.73,100-100,100"/>
      <path class="cls-1" d="M120,220c0-55.27-44.73-100-100-100"/>
      <line class="cls-1" x1="820" y1="220" x2="820" y2="220"/>
      <path class="cls-1" d="M720,220c0-55.27,44.73-100,100-100"/>
      <path class="cls-1" d="M720,220c0,55.27,44.73,100,100,100"/>
      <line class="cls-1" x1="820" y1="620" x2="820" y2="620"/>
      <line class="cls-1" x1="820" y1="420" x2="820" y2="420"/>
      <path class="cls-1" d="M720,620c0-55.27,44.73-100,100-100"/>
      <path class="cls-1" d="M720,620c0,55.27,44.73,100,100,100"/>
      <path class="cls-1" d="M320,620c0,55.27-44.73,100-100,100"/>
      <path class="cls-1" d="M520,620c0,55.27,44.73,100,100,100"/>
      <path class="cls-1" d="M320,620c0-55.27-44.73-100-100-100"/>
      <path class="cls-1" d="M120,420c0,55.27,44.73,100,100,100"/>
      <path class="cls-1" d="M520,220c0,55.27,44.73,100,100,100"/>
      <path class="cls-1" d="M120,420c0-55.27,44.73-100,100-100"/>
      <path class="cls-1" d="M320,220c0,55.27-44.73,100-100,100"/>
      <path class="cls-1" d="M320,220c0-55.27-44.73-100-100-100"/>
      <path class="cls-1" d="M118.49,20c0,55.27,45.4,100,101.51,100"/>
      <path class="cls-1" d="M520,620c0-55.27,44.73-100,100-100"/>
      <path class="cls-1" d="M720,420c0,55.27-44.73,100-100,100"/>
      <path class="cls-1" d="M520,220c0-55.27,44.73-100,100-100"/>
      <path class="cls-1" d="M720,20c0,55.27-44.73,100-100,100"/>
      <path class="cls-1" d="M720,420c0-55.27-44.73-100-100-100"/>
      <path class="cls-1" d="M320,420c0-55.27,44.73-100,100-100"/>
      <path class="cls-1" d="M520,420c0,55.27-44.73,100-100,100"/>
      <path class="cls-1" d="M520,420c0-55.27-44.73-100-100-100"/>
      <path class="cls-1" d="M320,420c0,55.27,44.73,100,100,100"/>
    </g>
  </g>
</svg>