<?xml version="1.0" encoding="UTF-8"?>
<svg id="Layer_2" data-name="Layer 2" xmlns="http://www.w3.org/2000/svg" viewBox="0 0 52.5 52.5">
  <defs>
    <style>
      .cls-1 {
        stroke-miterlimit: 11;
      }

      .cls-1, .cls-2 {
        fill: none;
        stroke: #221f1f;
        stroke-linecap: round;
        stroke-width: 2.5px;
      }

      .cls-2 {
        stroke-linejoin: round;
      }
    </style>
  </defs>
  <g id="Layer_1-2" data-name="Layer 1">
    <g>
      <path class="cls-2" d="M45.05,26.25c0-10.4-8.4-18.8-18.8-18.8h-12.5c-3.5,0-6.3,2.8-6.3,6.3v25c0,3.5,2.8,6.2,6.2,6.2h12.6c10.4.1,18.8-8.3,18.8-18.7"/>
      <line class="cls-1" x1="1.25" y1="26.25" x2="1.25" y2="26.25"/>
      <line class="cls-1" x1="1.25" y1="13.75" x2="1.25" y2="13.75"/>
      <line class="cls-1" x1="1.25" y1="38.75" x2="1.25" y2="38.75"/>
      <line class="cls-1" x1="1.25" y1="32.45" x2="1.25" y2="32.45"/>
      <line class="cls-1" x1="1.25" y1="20.05" x2="1.25" y2="20.05"/>
      <line class="cls-1" x1="13.75" y1="1.25" x2="13.75" y2="1.25"/>
      <line class="cls-1" x1="20.05" y1="1.25" x2="20.05" y2="1.25"/>
      <line class="cls-1" x1="26.25" y1="1.25" x2="26.25" y2="1.25"/>
      <line class="cls-1" x1="32.45" y1="1.25" x2="32.45" y2="1.25"/>
      <line class="cls-1" x1="45.05" y1="1.25" x2="45.05" y2="1.25"/>
      <line class="cls-1" x1="45.05" y1="51.25" x2="45.05" y2="51.25"/>
      <line class="cls-1" x1="51.25" y1="13.75" x2="51.25" y2="13.75"/>
      <line class="cls-1" x1="51.25" y1="20.05" x2="51.25" y2="20.05"/>
      <line class="cls-1" x1="51.25" y1="26.25" x2="51.25" y2="26.25"/>
      <line class="cls-1" x1="51.25" y1="32.45" x2="51.25" y2="32.45"/>
      <line class="cls-1" x1="51.25" y1="38.75" x2="51.25" y2="38.75"/>
      <path class="cls-1" d="M1.25,7.45c3.5,0,6.2-2.8,6.2-6.2"/>
      <path class="cls-1" d="M7.45,51.25c0-3.5-2.8-6.2-6.2-6.2"/>
      <line class="cls-1" x1="13.75" y1="51.25" x2="13.75" y2="51.25"/>
      <line class="cls-1" x1="20.05" y1="51.25" x2="20.05" y2="51.25"/>
      <line class="cls-1" x1="26.25" y1="51.25" x2="26.25" y2="51.25"/>
      <line class="cls-1" x1="32.45" y1="51.25" x2="32.45" y2="51.25"/>
      <line class="cls-1" x1="38.75" y1="51.25" x2="38.75" y2="51.25"/>
      <path class="cls-1" d="M45.05,13.75c0-3.5,2.8-6.2,6.2-6.2"/>
      <path class="cls-1" d="M45.05,1.25c0,3.5-2.8,6.2-6.2,6.2"/>
      <path class="cls-1" d="M45.05,13.75c0-3.5,2.8-6.2,6.2-6.2"/>
      <path class="cls-1" d="M45.05,1.25c0,3.5-2.8,6.2-6.2,6.2"/>
      <path class="cls-1" d="M38.75,45.05c3.5,0,6.2,2.8,6.2,6.2"/>
      <path class="cls-1" d="M51.25,45.05c-3.5,0-6.2-2.8-6.2-6.2"/>
      <path class="cls-1" d="M38.75,45.05c3.5,0,6.2,2.8,6.2,6.2"/>
      <path class="cls-1" d="M51.25,45.05c-3.5,0-6.2-2.8-6.2-6.2"/>
    </g>
  </g>
</svg>