<?xml version="1.0" encoding="UTF-8"?>
<svg id="Layer_2" data-name="Layer 2" xmlns="http://www.w3.org/2000/svg" viewBox="0 0 52.5 52.5">
  <defs>
    <style>
      .cls-1 {
        stroke-miterlimit: 11;
      }

      .cls-1, .cls-2 {
        fill: none;
        stroke: #221f1f;
        stroke-linecap: round;
        stroke-width: 2.5px;
      }

      .cls-2 {
        stroke-linejoin: round;
      }
    </style>
  </defs>
  <g id="Layer_1-2" data-name="Layer 1">
    <g>
      <path class="cls-2" d="M32.45,45.05c0-6.9-5.6-12.5-12.5-12.5v6.2c0,3.5-2.8,6.2-6.2,6.2h-6.3v-6.2h0V13.75h0v-6.3h6.2c3.5,0,6.2,2.8,6.2,6.2h0v6.3h6.4c3.5,0,6.3-2.8,6.3-6.3s2.8-6.2,6.2-6.2h6.2v6.2h0c0,6.5-3.3,12.3-8.4,15.6h0c5.1,3.4,8.4,9.1,8.4,15.6h-12.5"/>
      <line class="cls-1" x1="13.75" y1="1.25" x2="13.75" y2="1.25"/>
      <line class="cls-1" x1="7.45" y1="1.25" x2="7.45" y2="1.25"/>
      <line class="cls-1" x1="20.05" y1="1.25" x2="20.05" y2="1.25"/>
      <line class="cls-1" x1="38.75" y1="1.25" x2="38.75" y2="1.25"/>
      <line class="cls-1" x1="45.05" y1="1.25" x2="45.05" y2="1.25"/>
      <line class="cls-1" x1="26.25" y1="1.25" x2="26.25" y2="1.25"/>
      <line class="cls-1" x1="26.25" y1="13.75" x2="26.25" y2="13.75"/>
      <line class="cls-1" x1="1.25" y1="38.75" x2="1.25" y2="38.75"/>
      <line class="cls-1" x1="1.25" y1="45.05" x2="1.25" y2="45.05"/>
      <line class="cls-1" x1="1.25" y1="32.45" x2="1.25" y2="32.45"/>
      <line class="cls-1" x1="1.25" y1="20.05" x2="1.25" y2="20.05"/>
      <line class="cls-1" x1="1.25" y1="7.45" x2="1.25" y2="7.45"/>
      <line class="cls-1" x1="1.25" y1="26.25" x2="1.25" y2="26.25"/>
      <line class="cls-1" x1="1.25" y1="13.75" x2="1.25" y2="13.75"/>
      <path class="cls-1" d="M20.05,1.25c0,3.5,2.8,6.2,6.2,6.2"/>
      <path class="cls-1" d="M26.25,7.45c3.5,0,6.2-2.8,6.2-6.2"/>
      <line class="cls-1" x1="26.25" y1="51.25" x2="26.25" y2="51.25"/>
      <line class="cls-1" x1="13.75" y1="51.25" x2="13.75" y2="51.25"/>
      <line class="cls-1" x1="7.45" y1="51.25" x2="7.45" y2="51.25"/>
      <line class="cls-1" x1="38.75" y1="51.25" x2="38.75" y2="51.25"/>
      <line class="cls-1" x1="45.05" y1="51.25" x2="45.05" y2="51.25"/>
      <line class="cls-1" x1="51.25" y1="45.05" x2="51.25" y2="45.05"/>
      <line class="cls-1" x1="51.25" y1="38.75" x2="51.25" y2="38.75"/>
      <line class="cls-1" x1="51.25" y1="32.45" x2="51.25" y2="32.45"/>
      <line class="cls-1" x1="51.25" y1="20.05" x2="51.25" y2="20.05"/>
      <line class="cls-1" x1="51.25" y1="13.75" x2="51.25" y2="13.75"/>
      <line class="cls-1" x1="51.25" y1="7.45" x2="51.25" y2="7.45"/>
      <line class="cls-1" x1="32.45" y1="51.25" x2="32.45" y2="51.25"/>
      <line class="cls-1" x1="26.25" y1="38.75" x2="26.25" y2="38.75"/>
      <path class="cls-1" d="M26.25,45.05c-3.5,0-6.2,2.8-6.2,6.2"/>
      <path class="cls-1" d="M51.25,26.25c-3.5,0-6.2,2.8-6.2,6.2"/>
    </g>
  </g>
</svg>