<?xml version="1.0" encoding="UTF-8"?>
<svg id="Layer_2" data-name="Layer 2" xmlns="http://www.w3.org/2000/svg" viewBox="0 0 840 840">
  <defs>
    <style>
      .cls-1 {
        fill: none;
        stroke: #221f1f;
        stroke-linecap: round;
        stroke-linejoin: round;
        stroke-width: 40px;
      }
    </style>
  </defs>
  <g id="Layer_1-2" data-name="Layer 1">
    <g>
      <path class="cls-1" d="M120,820c0-55.27-44.73-100-100-100"/>
      <path class="cls-1" d="M20,120c55.27,0,100-44.73,100-100"/>
      <path class="cls-1" d="M520,720c110.55,0,200-89.45,200-200s-89.45-200-200-200h-200,300c55.27,0,100-44.73,100-100,0-55.27-44.73-100-100-100h-300c-110.55,0-200,89.45-200,200s89.45,200,200,200h200H220c-55.27,0-100,44.73-100,100,0,55.27,44.73,100,100,100h300Z"/>
      <line class="cls-1" x1="20" y1="220" x2="20" y2="220"/>
      <line class="cls-1" x1="20" y1="320" x2="20" y2="320"/>
      <line class="cls-1" x1="20" y1="420" x2="20" y2="420"/>
      <line class="cls-1" x1="20" y1="520" x2="20" y2="520"/>
      <line class="cls-1" x1="20" y1="620" x2="20" y2="620"/>
      <path class="cls-1" d="M720,20c0,55.27,44.73,100,100,100"/>
      <path class="cls-1" d="M820,720c-55.27,0-100,44.73-100,100"/>
      <line class="cls-1" x1="820" y1="620" x2="820" y2="620"/>
      <line class="cls-1" x1="820" y1="520" x2="820" y2="520"/>
      <line class="cls-1" x1="820" y1="420" x2="820" y2="420"/>
      <line class="cls-1" x1="820" y1="320" x2="820" y2="320"/>
      <line class="cls-1" x1="820" y1="220" x2="820" y2="220"/>
      <line class="cls-1" x1="220" y1="20" x2="220" y2="20"/>
      <line class="cls-1" x1="320" y1="20" x2="320" y2="20"/>
      <line class="cls-1" x1="420" y1="20" x2="420" y2="20"/>
      <line class="cls-1" x1="520" y1="20" x2="520" y2="20"/>
      <line class="cls-1" x1="620" y1="20" x2="620" y2="20"/>
      <line class="cls-1" x1="220" y1="820" x2="220" y2="820"/>
      <line class="cls-1" x1="320" y1="820" x2="320" y2="820"/>
      <line class="cls-1" x1="420" y1="820" x2="420" y2="820"/>
      <line class="cls-1" x1="520" y1="820" x2="520" y2="820"/>
      <line class="cls-1" x1="620" y1="820" x2="620" y2="820"/>
    </g>
  </g>
</svg>