<?xml version="1.0" encoding="UTF-8"?>
<svg id="Layer_2" data-name="Layer 2" xmlns="http://www.w3.org/2000/svg" viewBox="0 0 52.5 52.5">
  <defs>
    <style>
      .cls-1 {
        stroke-miterlimit: 11;
      }

      .cls-1, .cls-2 {
        fill: none;
        stroke: #221f1f;
        stroke-linecap: round;
        stroke-width: 2.5px;
      }

      .cls-2 {
        stroke-linejoin: round;
      }
    </style>
  </defs>
  <g id="Layer_1-2" data-name="Layer 1">
    <g>
      <path class="cls-2" d="M20.05,13.75c0-3.5-2.8-6.2-6.2-6.2s-6.4,2.7-6.4,6.2v18.8c0,6.9,5.6,12.5,12.5,12.5h12.5c6.9,0,12.5-5.6,12.5-12.5V13.75c0-3.5-2.8-6.2-6.2-6.2s-6.2,2.8-6.2,6.2c0,0-.1,18.6,0,18.8s0-6.2,0-6.2c0-3.5-2.8-6.2-6.2-6.2s-6.2,2.8-6.2,6.2v6.2V13.75h-.1Z"/>
      <line class="cls-1" x1="13.75" y1="1.25" x2="13.75" y2="1.25"/>
      <line class="cls-1" x1="13.75" y1="1.25" x2="13.75" y2="1.25"/>
      <line class="cls-1" x1="20.05" y1="1.25" x2="20.05" y2="1.25"/>
      <line class="cls-1" x1="20.05" y1="1.25" x2="20.05" y2="1.25"/>
      <line class="cls-1" x1="26.25" y1="1.25" x2="26.25" y2="1.25"/>
      <line class="cls-1" x1="26.25" y1="1.25" x2="26.25" y2="1.25"/>
      <line class="cls-1" x1="26.25" y1="13.75" x2="26.25" y2="13.75"/>
      <line class="cls-1" x1="26.25" y1="13.75" x2="26.25" y2="13.75"/>
      <line class="cls-1" x1="32.45" y1="1.25" x2="32.45" y2="1.25"/>
      <line class="cls-1" x1="32.45" y1="1.25" x2="32.45" y2="1.25"/>
      <line class="cls-1" x1="38.75" y1="1.25" x2="38.75" y2="1.25"/>
      <line class="cls-1" x1="38.75" y1="1.25" x2="38.75" y2="1.25"/>
      <line class="cls-1" x1="51.25" y1="38.75" x2="51.25" y2="38.75"/>
      <line class="cls-1" x1="51.25" y1="32.45" x2="51.25" y2="32.45"/>
      <line class="cls-1" x1="51.25" y1="26.25" x2="51.25" y2="26.25"/>
      <line class="cls-1" x1="51.25" y1="20.05" x2="51.25" y2="20.05"/>
      <line class="cls-1" x1="51.25" y1="13.75" x2="51.25" y2="13.75"/>
      <path class="cls-1" d="M26.25,7.45c-3.5,0-6.2-2.8-6.2-6.2"/>
      <path class="cls-1" d="M32.45,1.25c0,3.5-2.8,6.2-6.2,6.2"/>
      <path class="cls-1" d="M51.25,7.45c-3.5,0-6.2-2.8-6.2-6.2"/>
      <path class="cls-1" d="M7.45,1.25c0,3.5-2.8,6.2-6.2,6.2"/>
      <line class="cls-1" x1="38.75" y1="51.25" x2="38.75" y2="51.25"/>
      <line class="cls-1" x1="32.45" y1="51.25" x2="32.45" y2="51.25"/>
      <line class="cls-1" x1="26.25" y1="51.25" x2="26.25" y2="51.25"/>
      <line class="cls-1" x1="20.05" y1="51.25" x2="20.05" y2="51.25"/>
      <line class="cls-1" x1="13.75" y1="51.25" x2="13.75" y2="51.25"/>
      <line class="cls-1" x1="1.25" y1="38.75" x2="1.25" y2="38.75"/>
      <line class="cls-1" x1="1.25" y1="32.45" x2="1.25" y2="32.45"/>
      <line class="cls-1" x1="1.25" y1="26.25" x2="1.25" y2="26.25"/>
      <line class="cls-1" x1="1.25" y1="20.05" x2="1.25" y2="20.05"/>
      <line class="cls-1" x1="1.25" y1="13.75" x2="1.25" y2="13.75"/>
      <path class="cls-1" d="M1.25,45.05c3.5,0,6.2,2.8,6.2,6.2"/>
      <path class="cls-1" d="M45.05,51.25c0-3.5,2.8-6.2,6.2-6.2"/>
    </g>
  </g>
</svg>